<svg xmlns="http://www.w3.org/2000/svg" viewBox="0 0 154.96 108.33"><defs><style>.cls-1{fill:#6fcfef;}.cls-2{fill:#44a7de;}.cls-3{fill:#ccecfc;}.cls-4{fill:#7ac9f0;}</style></defs><g id="Camada_2" data-name="Camada 2"><g id="Camada_1-2" data-name="Camada 1"><path class="cls-1" d="M78.59,38.79V77.42a2.12,2.12,0,0,0,3,1.93l36.85-16.83a2.13,2.13,0,0,0,1.24-1.93V21.53a2.12,2.12,0,0,0-3-1.92L79.81,36.87A2.11,2.11,0,0,0,78.59,38.79Z"/><path class="cls-2" d="M34.73,21.91V60.44a2.38,2.38,0,0,0,1.38,2.15l36.37,16.6a2.36,2.36,0,0,0,3.34-2.14V38.94a2.36,2.36,0,0,0-1.36-2.14l-36.37-17A2.36,2.36,0,0,0,34.73,21.91Z"/><path class="cls-3" d="M116.13,87.09C140.92,84.39,155,79.2,155,73.22c0-5.39-10.93-10.15-31.82-13h0a6.15,6.15,0,0,1-3.61,5.6l-35.06,16a17.47,17.47,0,0,1-14.53,0l-35.14-16a6,6,0,0,1-3.53-5.49h0C10.69,63.16,0,67.88,0,73.22c0,5.83,13.25,10.92,37.08,13.67h0a17.28,17.28,0,0,1,3.17.61c.92.31,1.52.75.84,1.34-.07.07-1.22,1-1.47,1.1-3.16,1.74-5,3.74-5,5.85,0,6.93,19.17,12.54,42.82,12.54s42.82-5.61,42.82-12.54c0-2.31-2.14-4.48-5.87-6.33a10,10,0,0,1-1-.77C112.71,87.84,114.67,87.33,116.13,87.09Z"/><path class="cls-4" d="M78.34,34.5,112,18.72a2.68,2.68,0,0,0-.13-4.91L78.21.2a2.6,2.6,0,0,0-2,0L42.51,13.81a2.68,2.68,0,0,0-.14,4.91L76.07,34.5A2.65,2.65,0,0,0,78.34,34.5Z"/></g></g></svg>