<svg xmlns="http://www.w3.org/2000/svg" viewBox="0 0 258.52 108.33"><defs><style>.cls-1{fill:#fff;}</style></defs><g id="Camada_2" data-name="Camada 2"><g id="Camada_1-2" data-name="Camada 1"><path class="cls-1" d="M1.51,26.26c.47,0,.47,0,1,0s.48.12,1,.12.48-.05,1-.05.52,0,1,0,.52,0,1,0a1.2,1.2,0,0,1,1,.44,1.2,1.2,0,0,1,.44,1c0,.48,0,.48,0,.95s-.08.47-.08.91.12.48.12.95,0,.47,0,.95,0,.47,0,.91-.08.48-.08,1,.08.47.08.95-.08.47-.08,1,0,.43,0,.91.12.47.12,1,0,.47,0,1,0,.43,0,.91,0,.47,0,1,0,.47,0,.95-.08.47-.08.91v.95c0,.47.08.47.08,1s-.08.47-.08.91v1.9c0,.47.08.47.08.95v1.86c0,.47,0,.47,0,1s0,.43,0,.91.11.47.11,1,0,.47,0,1,0,.47,0,.91a1.51,1.51,0,0,1-.4,1,1.46,1.46,0,0,1-1,.43c-.47,0-.47,0-1,0s-.47.08-1,.08-.51-.12-1-.12h-1c-.51,0-.51.12-1,.12a1.48,1.48,0,0,1-1-.47,1.49,1.49,0,0,1-.36-1c0-.44-.08-.44-.08-.91s.08-.48.08-1,0-.48,0-1,0-.44,0-.91v-1c0-.48.08-.48.08-.95s0-.48,0-.91,0-.48,0-.95S0,46,0,45.57s0-.48,0-.91,0-.48,0-.95.08-.48.08-1v-.95c0-.44-.12-.44-.12-.91s.08-.48.08-.95V39c0-.44,0-.44,0-.91s0-.48,0-1,.12-.48.12-1,0-.48,0-.91,0-.48,0-1,0-.48,0-.95,0-.47,0-.91,0-.48,0-.95S0,31,0,30.57s.12-.47.12-.95,0-.44,0-.91v-.95a1.4,1.4,0,0,1,.4-1A1.48,1.48,0,0,1,1.51,26.26Z"/><path class="cls-1" d="M27.79,55.86c-.32,0-.63,0-.95,0s-.59-.12-.91-.16-.63-.12-.95-.16l-.91-.24c-.32-.08-.63-.12-.91-.19s-.63-.12-.95-.24-.51-.36-.83-.48a6.33,6.33,0,0,1-.87-.35c-.28-.16-.51-.36-.79-.52s-.6-.23-.87-.39-.44-.48-.67-.68a4.78,4.78,0,0,1-.72-.63c-.24-.2-.47-.39-.71-.63s-.4-.48-.59-.71-.48-.44-.68-.68-.27-.55-.47-.83-.32-.51-.48-.79a7,7,0,0,1-.43-.87c-.12-.28-.36-.51-.48-.83s-.11-.64-.2-.91-.15-.63-.23-.91-.24-.59-.32-.91l-.12-.95c0-.32,0-.64-.08-1s.08-.63.08-1V40c0-.32-.08-.64,0-1a6.08,6.08,0,0,1,.2-.91c0-.32.12-.64.16-.91s.12-.63.2-.91.27-.6.39-.87a7,7,0,0,1,.4-.83,6.31,6.31,0,0,1,.35-.87c.16-.28.32-.56.48-.8a6.88,6.88,0,0,1,.55-.75,5.85,5.85,0,0,1,.56-.75,5.17,5.17,0,0,1,.55-.75c.2-.24.52-.4.71-.6a8.53,8.53,0,0,0,.68-.67,5.05,5.05,0,0,1,.71-.59c.24-.2.55-.28.79-.48s.51-.39.79-.55.56-.2.83-.36.6-.19.87-.31a9.5,9.5,0,0,1,.87-.4,6.21,6.21,0,0,1,.92-.2,5.46,5.46,0,0,1,.87-.27,7.53,7.53,0,0,1,.95-.16c.27,0,.59,0,.9,0s.64-.12,1-.12.63,0,1,0a7.16,7.16,0,0,1,1,.16,7.47,7.47,0,0,1,1,0c.36,0,.64.23.95.27l.95.24a5.71,5.71,0,0,1,.91.28c.32.12.68.16.95.28s.64.23.91.35.52.44.8.6.55.31.83.51.51.4.75.59.43.52.67.72a4.51,4.51,0,0,1,.67.71c.2.23.44.47.64.71a1,1,0,0,1,.2.71,1.06,1.06,0,0,1-.36.75c-.4.28-.52.16-.91.44s-.44.32-.87.59a9.22,9.22,0,0,0-.79.64,5,5,0,0,0-.83.59c-.44.28-.44.28-.87.59a1.13,1.13,0,0,1-.72.16,1,1,0,0,1-.59-.39,6.56,6.56,0,0,0-.67-.72,6.69,6.69,0,0,0-.76-.63,4.82,4.82,0,0,0-.87-.47,5.3,5.3,0,0,0-.83-.52,7.77,7.77,0,0,0-1-.24c-.31-.07-.67-.07-1-.12s-.63,0-1,0a8.39,8.39,0,0,0-.91.11,7.56,7.56,0,0,0-.91.16,7.23,7.23,0,0,0-.87.2c-.31.16-.51.36-.79.51a4.86,4.86,0,0,0-.71.56,5.37,5.37,0,0,0-.75.55,5.73,5.73,0,0,0-.48.79,5.44,5.44,0,0,0-.51.8l-.36.83a5.81,5.81,0,0,0-.2.91c-.08.27-.23.55-.31.87s0,.59,0,.91,0,.59,0,.91a7.53,7.53,0,0,0,0,1,6.7,6.7,0,0,0,0,.91c.08.32.08.63.15,1s.2.59.32.87.28.59.4.87a8.07,8.07,0,0,0,.59.75,4.63,4.63,0,0,0,.55.75,3.48,3.48,0,0,0,.68.64,5.85,5.85,0,0,0,.71.59,6.09,6.09,0,0,0,.91.32,7.34,7.34,0,0,0,.83.35,8.19,8.19,0,0,0,.95.16,6.26,6.26,0,0,0,.91.12c.36,0,.63-.16.95-.16l.91-.12c.32-.08.63,0,.91-.12a9.13,9.13,0,0,0,.83-.43,5,5,0,0,0,.83-.44,4.28,4.28,0,0,0,.79-.51c.2-.2.44-.44.64-.67a5.78,5.78,0,0,0,.55-.75,1.29,1.29,0,0,1,.56-.48,1,1,0,0,1,.71.2c.43.28.47.19.91.47s.43.32.83.6.44.31.87.59.44.24.87.51.48.24.91.52a1.37,1.37,0,0,1,.36.67.88.88,0,0,1-.12.71c-.16.28-.36.52-.55.79s-.44.48-.64.72-.43.47-.67.67-.36.55-.59.79-.56.32-.8.52a5.64,5.64,0,0,1-.79.51,8.54,8.54,0,0,1-.79.59,6.05,6.05,0,0,1-.91.28c-.28.12-.55.24-.87.36a8.49,8.49,0,0,1-.91.35,6,6,0,0,1-.91.24,7.61,7.61,0,0,1-.95.08,8,8,0,0,1-.95.2c-.32,0-.63,0-.95,0S28.15,55.86,27.79,55.86Z"/><path class="cls-1" d="M46,26.45c.47,0,.47-.08,1-.08s.51.05,1,.05h.94c.52,0,.52-.05,1-.05s.48.05.95.05.52-.05,1-.05.48.05,1,.05.52-.05,1-.05H55.7c.48,0,.48.12,1,.12s.48,0,1,0h1.94c.47,0,.47,0,1,0s.47-.05,1-.05.51.12,1,.12.47-.07,1-.07.51-.05,1-.05a1,1,0,0,1,.67.36,1,1,0,0,1,.32.67c0,.44,0,.44,0,.91s0,.48,0,.91-.2.48-.2.91.16.48.16,1-.16.43-.16.9a.72.72,0,0,1-.24.64.85.85,0,0,1-.63.39c-.48,0-.48,0-1,0s-.48,0-1,0-.48-.11-1-.11-.48.11-1,.11h-1c-.47,0-.47,0-.95,0s-.47,0-1,0-.47-.08-1-.08-.47.08-1,.08-.47.12-1,.12-.47-.15-1-.15a1,1,0,0,0-.71.31.9.9,0,0,0-.28.71c0,.48,0,.48,0,1s0,.48,0,.95.08.48.08,1a.87.87,0,0,0,.28.64c.2.19.39.39.63.39.48,0,.48-.08,1-.08s.52.08,1,.08.48-.12.95-.12.48.08,1,.08.48,0,.95,0,.48,0,1,0,.48,0,1,0,.48.08.95.08.47,0,1,0a.8.8,0,0,1,.67.28.82.82,0,0,1,.28.67c0,.56,0,.56,0,1.07s.12.52.12,1.07V43a.94.94,0,0,1-.4.63.78.78,0,0,1-.63.36h-1c-.47,0-.47,0-.95,0h-1c-.47,0-.47,0-1,0s-.47,0-.95,0-.47,0-1,0-.47,0-.95,0-.47,0-1,0-.47,0-1,0a1,1,0,0,0-.67.31,1,1,0,0,0-.28.68c0,.51.08.51.08,1v1c0,.52-.12.52-.12,1a1,1,0,0,0,.28.71,1.05,1.05,0,0,0,.71.32c.48,0,.48-.12,1-.12s.48.12.95.12.48,0,1,0,.44,0,.91,0h.95c.48,0,.48-.12,1-.12s.48.16.91.16.48-.12,1-.12.48,0,.95,0,.48,0,1,0,.44,0,.91,0h1a1,1,0,0,1,.95,1v1.86c0,.44,0,.44,0,.91v.91c0,.48,0,.48,0,.91a1,1,0,0,1-.28.68.88.88,0,0,1-.67.35c-.47,0-.47-.12-1-.12s-.47.16-1,.16-.47,0-1,0-.47-.08-.95-.08-.47.12-1,.12h-.95c-.47,0-.47-.08-1-.08s-.47.08-1,.08-.51-.12-1-.12h-1c-.47,0-.47,0-1,0H53.6c-.47,0-.47-.08-1-.08s-.47,0-.95,0H49.81c-.48,0-.48.08-1,.08s-.47,0-.94,0-.48,0-.95,0-.48.08-1,.08a.91.91,0,0,1-.68-.35,1,1,0,0,1-.39-.68c0-.47.16-.47.16-.91s-.12-.47-.12-1,.12-.47.12-.95v-.91c0-.47-.08-.47-.08-.95s.08-.47.08-.91V47c0-.47-.08-.47-.08-.91s0-.47,0-.95,0-.47,0-1,.08-.43.08-.91-.08-.47-.08-1,.08-.47.08-1S45,41,45,40.5s0-.47,0-1,.16-.47.16-.91,0-.47,0-1-.08-.47-.08-.95,0-.47,0-.91,0-.47,0-.95-.12-.47-.12-1,.12-.43.12-.91V30.21c0-.47-.08-.47-.08-.95s.12-.47.12-.91,0-.47,0-1a.9.9,0,0,1,.23-.71A.88.88,0,0,1,46,26.45Z"/><path class="cls-1" d="M178.31,50a8.5,8.5,0,0,0,.75-.47c.36-.28.32-.32.68-.6s.27-.35.63-.63a5,5,0,0,0,.79-.44c.36-.27.32-.31.67-.59s.4-.24.76-.51a.94.94,0,0,1,1.18.08c.2.23.4.43.64.67a4,4,0,0,0,.67.55,8.68,8.68,0,0,0,.71.56,4.43,4.43,0,0,0,.83.39,5.9,5.9,0,0,0,.87.28c.28,0,.6,0,.91.08a6.55,6.55,0,0,0,.91.08,6.65,6.65,0,0,0,.95-.12,3.3,3.3,0,0,0,1-.16,2.62,2.62,0,0,0,.91-.36,1.73,1.73,0,0,0,.64-.71,1.84,1.84,0,0,0,.19-1,1.8,1.8,0,0,0-.27-.95,2.66,2.66,0,0,0-.71-.71,5.26,5.26,0,0,0-.87-.51l-1-.36c-.4-.12-.44,0-.88-.16s-.39-.24-.83-.4a8.41,8.41,0,0,0-.87-.19c-.43-.16-.43-.2-.83-.36l-.91-.24c-.32-.12-.55-.39-.83-.51s-.63-.16-.91-.28-.47-.43-.75-.59-.56-.32-.79-.52a8.63,8.63,0,0,1-.68-.67c-.19-.24-.51-.39-.71-.63a7.32,7.32,0,0,1-.43-.83c-.16-.28-.4-.52-.52-.79s-.2-.6-.31-.92a6,6,0,0,1-.16-.9,7.87,7.87,0,0,1-.12-1,6.57,6.57,0,0,1-.16-.94,7.14,7.14,0,0,1,.08-.92,6.12,6.12,0,0,1,.12-.9,7.79,7.79,0,0,1,.24-.92l.35-.83c.12-.27.28-.55.44-.83a7.68,7.68,0,0,1,.51-.75c.2-.24.36-.51.56-.75s.51-.36.75-.56a5.37,5.37,0,0,1,.75-.55c.28-.16.55-.28.83-.43s.52-.32.79-.44a8.41,8.41,0,0,1,.87-.32c.32-.08.63,0,.95-.11s.6-.12.87-.2.64-.12.91-.16.64-.08.95-.08a6.56,6.56,0,0,1,.91,0c.32,0,.64,0,.95,0l.91.12a6.32,6.32,0,0,1,.87.31,5.81,5.81,0,0,1,.91.2,5.92,5.92,0,0,1,.91.16,9,9,0,0,1,.8.47,4.27,4.27,0,0,1,.83.4,6,6,0,0,1,.83.44,4.31,4.31,0,0,1,.75.51c.24.2.4.48.63.67a.87.87,0,0,1,.12,1.19c-.32.36-.32.36-.67.71s-.4.28-.75.6-.32.35-.68.71-.27.39-.59.75-.4.28-.75.59a.68.68,0,0,1-1,.08,6.81,6.81,0,0,0-.83-.51,3.83,3.83,0,0,0-.83-.52,8.8,8.8,0,0,0-1-.23,3.78,3.78,0,0,0-.95-.24,25.21,25.21,0,0,0-1.94.12,3.06,3.06,0,0,0-.91.32,2.12,2.12,0,0,0-.75.63,1.82,1.82,0,0,0-.12,1,1.94,1.94,0,0,0,.24,1,2.2,2.2,0,0,0,.71.79,5.67,5.67,0,0,0,1.07.28,7.52,7.52,0,0,0,.95.39c.47.16.47.16.95.36l1,.31.94.32c.32.12.64.28.92.4s.67.12,1,.23a6.77,6.77,0,0,1,.91.4c.31.16.55.36.83.51s.59.36.83.52.59.35.83.55.43.52.63.76a4.41,4.41,0,0,1,.56.79,5.23,5.23,0,0,1,.59.79,4.12,4.12,0,0,1,.28.95,8,8,0,0,1,.39.91,8.17,8.17,0,0,1,0,1,8.11,8.11,0,0,1,0,1,7.77,7.77,0,0,1-.08,1,7.77,7.77,0,0,1-.08.95c-.08.31-.08.63-.15,1a6.43,6.43,0,0,1-.28.91,6.77,6.77,0,0,1-.4.91,5,5,0,0,1-.51.83c-.16.24-.48.39-.71.63a3.33,3.33,0,0,1-.68.67,7.79,7.79,0,0,1-.71.6,4.65,4.65,0,0,1-.83.51,6.59,6.59,0,0,1-.95.28c-.28.12-.55.31-.87.43s-.59.08-.91.16a7.45,7.45,0,0,1-1,.12c-.28,0-.59.12-.91.16a7.87,7.87,0,0,1-1,0c-.28,0-.59.16-1,.16a9.5,9.5,0,0,1-1-.12,8.17,8.17,0,0,1-1,0,8.26,8.26,0,0,1-1-.24c-.31,0-.63-.12-.95-.16s-.67,0-1-.12-.63-.27-.91-.35-.63-.28-.91-.4-.67-.16-.95-.27a6.7,6.7,0,0,1-.83-.56,4.7,4.7,0,0,1-.83-.51c-.28-.2-.55-.4-.79-.6a4.4,4.4,0,0,1-.67-.71,5.33,5.33,0,0,1-.64-.75A.78.78,0,0,1,178.31,50Z"/><path class="cls-1" d="M203.92,27.44a1,1,0,0,1,.27-.67.82.82,0,0,1,.68-.28c.47,0,.47-.07.91-.07s.47.11.95.11.47-.16,1-.16.43.05.91.05.47.07.95.07.47-.12.91-.12h1c.47,0,.47.08.95.08s.43-.08.91-.08.47.12,1,.12h1.9c.31,0,.63,0,.95,0a8.81,8.81,0,0,1,.95.24,8.19,8.19,0,0,1,1,.16,8.81,8.81,0,0,1,.95.24,6.41,6.41,0,0,1,.91.27,9.65,9.65,0,0,1,1,.32c.27.12.55.28.83.44s.55.35.83.51a7.42,7.42,0,0,1,.83.47c.28.2.51.44.75.64a8.53,8.53,0,0,1,.79.59c.24.2.36.56.56.79s.51.4.71.68a4.7,4.7,0,0,1,.43.87,5.3,5.3,0,0,1,.52.83,5.11,5.11,0,0,1,.47.83,6.09,6.09,0,0,1,.32.91,7.91,7.91,0,0,1,.28.91c.08.32.2.63.27,1a7.64,7.64,0,0,1,.24.91,8.26,8.26,0,0,1,.08,1c0,.31.12.63.16,1s0,.63,0,.95a8.17,8.17,0,0,1,0,1,8,8,0,0,1-.12,1c0,.31,0,.67,0,1l-.12,1c-.08.31-.31.59-.39.91s-.2.63-.28.91a9.65,9.65,0,0,1-.32,1c-.12.27-.31.55-.47.83s-.32.55-.52.83a4.81,4.81,0,0,1-.47.83c-.2.28-.48.47-.67.71l-.68.68c-.23.23-.47.43-.71.67l-.79.59c-.24.16-.48.44-.75.59a8.92,8.92,0,0,1-.87.36c-.32.16-.6.32-.87.48s-.56.31-.87.43a7.77,7.77,0,0,0-1,.24c-.32.08-.6.2-.91.28a9.53,9.53,0,0,0-1,.15c-.32,0-.64,0-.95.08s-.64.12-.95.16h-1c-.44,0-.44-.08-.91-.08s-.48,0-1,0-.48.12-.91.12-.48-.08-.95-.08-.48,0-1,0-.44,0-.91,0-.48,0-.95,0-.48-.08-.91-.08h-1c-.48,0-.48,0-.95,0s-.44,0-.91,0a.88.88,0,0,1-.72-.24c-.19-.15-.19-.43-.19-.71,0-.47,0-.47,0-.91s0-.47,0-1-.12-.47-.12-.95.08-.43.08-.91v-1.9c0-.43,0-.43,0-.91s-.12-.47-.12-1,.08-.47.08-.91v-1.9c0-.47-.12-.47-.12-.91s.12-.47.12-1,0-.47,0-.95-.12-.43-.12-.91v-.95c0-.47,0-.47,0-1s.08-.43.08-.91v-.95c0-.47-.12-.47-.12-.91s0-.47,0-.95V34c0-.47,0-.47,0-.91s.08-.47.08-1v-.95c0-.43,0-.43,0-.91V29.3c0-.47,0-.47,0-.95A6.9,6.9,0,0,0,203.92,27.44ZM214.29,49a7.77,7.77,0,0,0,1-.08,8.19,8.19,0,0,0,.95-.16,8.46,8.46,0,0,0,.91-.27c.31-.12.63-.16.91-.28s.51-.43.75-.59a6.57,6.57,0,0,0,.79-.6,7.74,7.74,0,0,0,.67-.63c.2-.24.28-.59.48-.87a9,9,0,0,0,.43-.83,6.11,6.11,0,0,0,.36-.87,8.19,8.19,0,0,0,.16-.95c0-.28.19-.6.23-.91s0-.64,0-1a7.45,7.45,0,0,0-.08-.95,7.46,7.46,0,0,0-.11-1c-.08-.32-.08-.63-.16-.95a5.28,5.28,0,0,0-.36-.87,5.42,5.42,0,0,0-.43-.87,8.14,8.14,0,0,0-.56-.79c-.2-.24-.47-.44-.67-.64a6.58,6.58,0,0,0-.75-.63,3.59,3.59,0,0,0-.79-.52,8.1,8.1,0,0,0-.91-.31c-.32-.08-.6-.24-.91-.32s-.64,0-.95,0a8.48,8.48,0,0,0-1-.2c-.44,0-.44.12-.83.12s-.4-.12-.8-.12a1.17,1.17,0,0,0-.75.28,1,1,0,0,0-.24.75c0,.48-.07.48-.07,1v1.86c0,.44.07.44.07.91s0,.48,0,1,0,.44,0,.91-.07.48-.07.95.07.44.07.91-.07.48-.07.95.11.44.11.91,0,.48,0,.95-.15.48-.15.91,0,.48,0,.95.08.48.08.91,0,.48,0,.95a.93.93,0,0,0,.28.71,1,1,0,0,0,.71.2c.4,0,.4.08.8.08A5.43,5.43,0,0,0,214.29,49Z"/><path class="cls-1" d="M249.75,26.33c.51,0,.51,0,1,0s.51-.07,1-.07h1c.48,0,.48.07,1,.07h2c.52,0,.52-.07,1-.07a.66.66,0,0,1,.48,1,8,8,0,0,0-.64.67c-.27.39-.31.35-.59.75s-.28.36-.55.75-.2.4-.52.79-.32.32-.59.68-.32.35-.6.71-.15.47-.43.83-.36.36-.63.71-.24.4-.52.75-.36.32-.63.72-.32.35-.6.71-.31.35-.59.71-.28.4-.55.75a7.68,7.68,0,0,1-.56.75c-.27.4-.27.36-.55.76a1,1,0,0,0,0,1.26,9.33,9.33,0,0,0,.43.83c.24.4.32.36.6.76s.16.47.39.83a8.14,8.14,0,0,1,.56.79c.27.39.27.35.55.75s.28.4.55.79.2.4.44.79l.55.8c.24.39.32.35.56.75l.55.79.48.79c.27.4.23.43.47.83s.2.4.48.79a8.07,8.07,0,0,0,.59.75c.24.4.28.4.52.8s.15.43.43.83.4.31.63.71.16.47.4.87a8.06,8.06,0,0,1,.51.79.54.54,0,0,1-.39.87h-.95c-.48,0-.48,0-.95,0s-.48,0-1,0-.44,0-.91,0h-.95c-.48,0-.48-.12-.95-.12h-1c-.48,0-.48.16-.95.16a1.13,1.13,0,0,1-.91-.59c-.28-.4-.24-.44-.48-.83s-.39-.32-.67-.72-.2-.43-.47-.83-.28-.39-.56-.79-.19-.43-.43-.83-.24-.39-.52-.83-.31-.36-.55-.75l-.56-.79c-.27-.4-.23-.4-.51-.79s-.32-.36-.59-.76-.16-.47-.4-.87a1.28,1.28,0,0,0-.95-.43,1.24,1.24,0,0,0-1,.31l-.55.8a5.16,5.16,0,0,0-.64.75,1,1,0,0,0-.27.71c0,.51.12.51.12,1s-.12.51-.12,1,0,.51,0,1,0,.51,0,1,0,.51,0,1,0,.51,0,1a1.24,1.24,0,0,1-.36.83,1.2,1.2,0,0,1-.79.31c-.48,0-.48-.08-.95-.08s-.44.08-.91.08-.48,0-.91,0-.48,0-1,0H233.8a1.28,1.28,0,0,1-.75-.39,1.1,1.1,0,0,1-.4-.75c0-.48,0-.48,0-1v-1c0-.51.12-.51.12-1s-.12-.48-.12-1,0-.48,0-.95v-1c0-.48,0-.48,0-1s0-.48,0-1v-1c0-.48,0-.48,0-.95s0-.48,0-1,0-.48,0-1-.08-.48-.08-.95,0-.48,0-1,.12-.48.12-.95-.08-.51-.08-1-.08-.48-.08-1,.12-.48.12-.95,0-.47,0-1,.08-.47.08-1-.12-.47-.12-.95.08-.47.08-1,0-.47,0-.95-.12-.47-.12-1,.08-.47.08-1,0-.47,0-.95,0-.47,0-.95,0-.47,0-.95a1.08,1.08,0,0,1,.28-.79,1,1,0,0,1,.75-.27c.47,0,.47-.12.95-.12h.91c.47,0,.47.07,1,.07s.43.05.91.05h1.86a1,1,0,0,1,.71.31,1.1,1.1,0,0,1,.4.75c0,.48,0,.48,0,.91s-.08.48-.08.95.08.48.08.95v2.85c0,.48,0,.48,0,1s.08.48.08.95a1.19,1.19,0,0,0,.23.87,1.23,1.23,0,0,0,.91.24,1.08,1.08,0,0,0,.76-.44c.31-.39.27-.39.55-.79s.36-.35.63-.71a8.21,8.21,0,0,1,.6-.75c.27-.4.19-.44.47-.83s.28-.4.55-.75.36-.32.68-.72.24-.39.51-.75a8.21,8.21,0,0,0,.6-.75l.59-.75.55-.79c.28-.36.2-.44.48-.8s.28-.39.55-.79A.81.81,0,0,1,249.75,26.33Z"/><path class="cls-1" d="M124.87,38.79V77.42a2.13,2.13,0,0,0,3,1.93l36.85-16.83A2.13,2.13,0,0,0,166,60.59V21.53a2.12,2.12,0,0,0-3-1.92L126.1,36.87A2.12,2.12,0,0,0,124.87,38.79Z"/><path class="cls-1" d="M81,21.91V60.44a2.37,2.37,0,0,0,1.37,2.15l36.38,16.6a2.36,2.36,0,0,0,3.34-2.14V38.94a2.36,2.36,0,0,0-1.36-2.14l-36.37-17A2.36,2.36,0,0,0,81,21.91Z"/><path class="cls-1" d="M162.41,87.09c24.8-2.7,38.83-7.89,38.83-13.87,0-5.39-10.92-10.15-31.82-13h0a6.14,6.14,0,0,1-3.6,5.6l-35.06,16a17.47,17.47,0,0,1-14.53,0l-35.14-16a6,6,0,0,1-3.53-5.49h0C57,63.16,46.29,67.88,46.29,73.22c0,5.83,13.25,10.92,37.08,13.67h0a17.28,17.28,0,0,1,3.17.61c.92.31,1.52.75.84,1.34-.07.07-1.22,1-1.47,1.1-3.17,1.74-5,3.74-5,5.85,0,6.93,19.18,12.54,42.83,12.54s42.82-5.61,42.82-12.54c0-2.31-2.14-4.48-5.87-6.33a9,9,0,0,1-1-.77C159,87.84,161,87.33,162.41,87.09Z"/><path class="cls-1" d="M124.63,34.5l33.69-15.78a2.68,2.68,0,0,0-.13-4.91L124.5.2a2.6,2.6,0,0,0-2,0L88.79,13.81a2.68,2.68,0,0,0-.13,4.91l33.7,15.78A2.65,2.65,0,0,0,124.63,34.5Z"/></g></g></svg>